<?xml version="1.0" encoding="iso-8859-1"?>
<!-- Generator: Adobe Illustrator 18.0.0, SVG Export Plug-In . SVG Version: 6.00 Build 0)  -->
<!DOCTYPE svg PUBLIC "-//W3C//DTD SVG 1.1//EN" "http://www.w3.org/Graphics/SVG/1.1/DTD/svg11.dtd">
<svg version="1.1" id="Capa_1" xmlns="http://www.w3.org/2000/svg" xmlns:xlink="http://www.w3.org/1999/xlink" x="0px" y="0px"
	 viewBox="0 0 480.34 480.34" style="enable-background:new 0 0 480.34 480.34;" xml:space="preserve">
<g>
	<g id="XMLID_8_">
		<g>
			<path d="M480.08,79.11l0.01,344.48c0,2.21-1.8,4-4,4H4.25c-2.21,0-4-1.79-4-4V79.11c0-2.21,1.79-4,4-4h270.96
				c-0.47-4.41-0.77-7.26-0.77-7.37c0-7.45,10.06-14.99,29.3-14.99c19.24,0,29.31,7.54,29.31,14.99c0,0.11-0.3,2.96-0.78,7.37
				h143.81C478.29,75.11,480.08,76.9,480.08,79.11z M472.09,419.59v-19.14H8.25v19.14H472.09z M472.08,392.45V83.11H331.41
				c-1.97,18.22-5.02,46.15-5.02,46.15c-0.24,7.78-11.51,11.85-22.65,11.85c-11.13,0-22.4-4.07-22.64-11.85
				c0,0-3.05-27.93-5.02-46.15H8.25v309.34H472.08z M322.65,89.6l1.16-10.64c-4.85,2.29-11.56,3.77-20.07,3.77
				c-8.51,0-15.22-1.48-20.06-3.77l1.16,10.64c4.79-2.84,11.87-4.3,18.9-4.3C310.78,85.3,317.86,86.76,322.65,89.6z M318.41,128.58
				l2.22-20.41c-4.65,2.14-10.78,3.24-16.89,3.24c-6.1,0-12.24-1.1-16.88-3.24l2.21,20.41c0.02,0.14,0.03,0.28,0.03,0.43
				c0.37,1.06,5.47,4.1,14.64,4.1c9.17,0,14.27-3.04,14.66-4.2C318.4,128.77,318.4,128.72,318.41,128.58z M325.05,67.74
				c0-2.09-7.25-6.99-21.31-6.99c-14.05,0-21.3,4.9-21.3,6.99c0,2.09,7.25,6.99,21.3,6.99C317.8,74.73,325.05,69.83,325.05,67.74z
				 M320.59,98.36c0-1.26-5.98-5.06-16.85-5.06s-16.84,3.8-16.84,5.06c0,1.25,5.97,5.05,16.84,5.05S320.59,99.61,320.59,98.36z"/>
			<rect x="8.25" y="400.45" style="fill:#F2F2F2;" width="463.84" height="19.14"/>
			<path style="fill:#FFFFFF;" d="M472.08,83.11v309.34H8.25V83.11h267.83c1.97,18.22,5.02,46.15,5.02,46.15
				c0.24,7.78,11.51,11.85,22.64,11.85c11.14,0,22.41-4.07,22.65-11.85c0,0,3.05-27.93,5.02-46.15H472.08z M463.59,327.46V225.14
				c0-20.04-16.29-36.33-36.33-36.33c-19.94,0-36.18,16.15-36.32,36.06h-24.88c-8.47,0-15.36,6.9-15.36,15.37
				c0,0-0.01,43.8-0.01,44.04c0,8.47,6.9,15.37,15.37,15.37h1.08c-2.39,3.86-3.78,8.42-3.78,13.29c0,13.97,11.37,25.33,25.34,25.33
				c12.6,0,23.09-9.26,25.01-21.33h13.32c13.05,0,23.67-10.62,23.67-23.67v-68c0-13.05-10.62-23.66-23.67-23.66
				c-12.92,0-23.44,10.4-23.66,23.26h-4.43c0.14-15.5,12.79-28.06,28.32-28.06c15.62,0,28.33,12.71,28.33,28.33v102.32
				c0,15.81-12.86,28.68-28.68,28.68h-13.72c-1.8-7.26-8.35-12.67-16.16-12.67h-16.67c-7.81,0-14.36,5.41-16.16,12.67h-2.5
				c-2.21,0-4,1.79-4,4c0,2.21,1.79,4,4,4h2.5c1.8,7.26,8.35,12.67,16.16,12.67h16.67c7.81,0,14.36-5.41,16.16-12.67h13.72
				C447.14,364.14,463.59,347.68,463.59,327.46z M463.59,165.32v-61.47c0-8.14-6.62-14.76-14.76-14.76h-72.47
				c-8.14,0-14.77,6.62-14.77,14.76v61.47c0,8.14,6.63,14.77,14.77,14.77h72.47C456.97,180.09,463.59,173.46,463.59,165.32z
				 M340.16,169.68c1.72-4.09-0.19-8.82-4.27-10.54l-25.44-10.8c-1.98-0.85-4.16-0.87-6.16-0.06c-2,0.8-3.56,2.34-4.39,4.31
				l-0.63,1.48l-2.81-2.8c-1.74-1.74-4.05-2.7-6.51-2.7c-2.46,0-4.77,0.96-6.51,2.7l-43.54,43.54c-1.74,1.74-2.7,4.05-2.7,6.51
				c0,2.46,0.96,4.77,2.7,6.51l17.91,17.91c1.74,1.74,4.05,2.7,6.5,2.7c2.46,0,4.78-0.96,6.51-2.7l5.66-5.66
				c0.75,0.8,1.66,1.44,2.7,1.88l25.45,10.81c1.02,0.43,2.08,0.64,3.13,0.63c3.13,0,6.11-1.83,7.42-4.89L340.16,169.68z
				 M333.18,367.96v-88c0-2.21-1.8-4-4-4c-2.21,0-4,1.79-4,4v88c0,2.21,1.79,4,4,4C331.38,371.96,333.18,370.17,333.18,367.96z
				 M312.31,379.09v-122c0-2.21-1.79-4-4-4H144.19c-2.21,0-4,1.79-4,4v122c0,2.2,1.79,4,4,4h164.12
				C310.52,383.09,312.31,381.29,312.31,379.09z M258.57,145.48c0-4.8-3.9-8.7-8.7-8.7h-33.46c-3.45,0-6.85-0.91-9.85-2.62
				c-4.2-2.41-8.98-3.68-13.82-3.68h-62.67c-8.27,0-15,6.73-15,15c0,8.27,6.73,15,15,15h62.67c4.84,0,9.62-1.27,13.82-3.68
				c3-1.71,6.4-2.62,9.85-2.62h33.46C254.67,154.18,258.57,150.28,258.57,145.48z M234.08,117.59v-22c0-2.21-1.8-4-4-4
				c-2.21,0-4,1.79-4,4v7h-27.5v-7c0-2.21-1.8-4-4-4h-71.5c-2.21,0-4,1.79-4,4v7H75.79c-2.21,0-4,1.79-4,4c0,2.2,1.79,4,4,4h43.29v7
				c0,2.2,1.79,4,4,4h71.5c2.2,0,4-1.8,4-4v-7h27.5v7c0,2.2,1.79,4,4,4C232.28,121.59,234.08,119.79,234.08,117.59z M226.07,180.59
				c0-6.9-5.6-12.5-12.5-12.5h-86c-6.89,0-12.5,5.6-12.5,12.5c0,6.89,5.61,12.5,12.5,12.5h86
				C220.47,193.09,226.07,187.48,226.07,180.59z M222.94,230.09c0-6.62-5.38-12-12-12h-13c-6.61,0-12,5.38-12,12
				c0,6.61,5.39,12,12,12h13C217.56,242.09,222.94,236.7,222.94,230.09z M187.44,212.59c0-6.62-5.38-12-12-12h-13
				c-6.61,0-12,5.38-12,12c0,6.61,5.39,12,12,12h13C182.06,224.59,187.44,219.2,187.44,212.59z M120.72,259.7
				c9.83-1.88,17.29-10.53,17.29-20.9c0-11.74-9.55-21.29-21.29-21.29s-21.29,9.55-21.29,21.29c0,10.37,7.46,19.02,17.29,20.9v28.27
				c0,12.62-10.27,22.9-22.9,22.9c-12.62,0-22.9-10.28-22.9-22.9v-53.31c18.36-2.56,32.69-18.86,32.69-38.12v-42.83
				c0-12.97-10.55-23.51-23.51-23.51h-0.01c-2.21,0-4,1.79-4,4c0,2.21,1.8,4,4.01,4c8.55,0,15.51,6.95,15.51,15.51v42.83
				c0,16.36-12.98,30.02-28.94,30.46c-8.11,0.23-15.79-2.77-21.6-8.42c-5.81-5.65-9.01-13.23-9.01-21.34v-43.53
				c0-8.56,6.96-15.51,15.51-15.51c2.21,0,4-1.79,4-4c0-2.21-1.79-4-4-4c-12.96,0-23.51,10.54-23.51,23.51v43.53
				c0,10.28,4.06,19.9,11.43,27.07c6.42,6.25,14.63,9.92,23.43,10.58v53.08c0,17.03,13.87,30.9,30.9,30.9
				c17.04,0,30.9-13.87,30.9-30.9V259.7z M97.09,376.22v-33.77c0-2.21-1.79-4-4-4H65.03v-12.03c0-2.21-1.79-4-4-4
				c-2.21,0-4,1.79-4,4v12.03H30.69c-2.21,0-4,1.79-4,4v33.77c0,2.21,1.79,4,4,4h62.4C95.3,380.22,97.09,378.43,97.09,376.22z"/>
			<path d="M463.59,225.14v102.32c0,20.22-16.45,36.68-36.68,36.68h-13.72c-1.8,7.26-8.35,12.67-16.16,12.67h-16.67
				c-7.81,0-14.36-5.41-16.16-12.67h-2.5c-2.21,0-4-1.79-4-4c0-2.21,1.79-4,4-4h2.5c1.8-7.26,8.35-12.67,16.16-12.67h16.67
				c7.81,0,14.36,5.41,16.16,12.67h13.72c15.82,0,28.68-12.87,28.68-28.68V225.14c0-15.62-12.71-28.33-28.33-28.33
				c-15.53,0-28.18,12.56-28.32,28.06h4.43c0.22-12.86,10.74-23.26,23.66-23.26c13.05,0,23.67,10.61,23.67,23.66v68
				c0,13.05-10.62,23.67-23.67,23.67h-13.32c-1.92,12.07-12.41,21.33-25.01,21.33c-13.97,0-25.34-11.36-25.34-25.33
				c0-4.87,1.39-9.43,3.78-13.29h-1.08c-8.47,0-15.37-6.9-15.37-15.37c0-0.24,0.01-44.04,0.01-44.04c0-8.47,6.89-15.37,15.36-15.37
				h24.88c0.14-19.91,16.38-36.06,36.32-36.06C447.3,188.81,463.59,205.1,463.59,225.14z M442.7,293.27v-68
				c0-8.64-7.03-15.66-15.67-15.66c-8.51,0-15.43,6.81-15.65,15.26H422c8.47,0,15.36,6.9,15.36,15.37c0,0,0,43.8,0,44.04
				c0,4.1-1.6,7.96-4.5,10.86c-2.9,2.91-6.76,4.51-10.87,4.51h-11.74c1.72,2.78,2.92,5.93,3.46,9.29h13.32
				C435.67,308.94,442.7,301.91,442.7,293.27z M429.36,270.79v-30.55c0-4.06-3.3-7.37-7.36-7.37h-42.64v36.04h42.63
				C424.66,268.91,427.17,269.59,429.36,270.79z M427.2,289.49c1.39-1.39,2.16-3.25,2.16-5.21c0-4.07-3.31-7.37-7.37-7.37h-55.93
				c-1.97,0-3.82,0.76-5.21,2.15c-1.39,1.4-2.16,3.25-2.16,5.22c0,4.06,3.31,7.37,7.37,7.37H375c3.95-2.56,8.65-4.04,13.7-4.04
				c5.04,0,9.74,1.48,13.69,4.04h19.6C423.96,291.65,425.81,290.88,427.2,289.49z M405.7,360.14c0-4.78-3.89-8.67-8.67-8.67h-16.67
				c-4.78,0-8.66,3.89-8.66,8.67c0,4.78,3.88,8.67,8.66,8.67h16.67C401.81,368.81,405.7,364.92,405.7,360.14z M406.03,312.94
				c0-9.56-7.78-17.33-17.33-17.33c-9.56,0-17.34,7.77-17.34,17.33s7.78,17.33,17.34,17.33
				C398.25,330.27,406.03,322.5,406.03,312.94z M371.36,268.91v-36.04h-5.3c-4.06,0-7.36,3.31-7.36,7.37v30.54
				c2.23-1.22,4.74-1.87,7.36-1.87H371.36z"/>
			<path d="M463.59,103.85v61.47c0,8.14-6.62,14.77-14.76,14.77h-72.47c-8.14,0-14.77-6.63-14.77-14.77v-61.47
				c0-8.14,6.63-14.76,14.77-14.76h72.47C456.97,89.09,463.59,95.71,463.59,103.85z M455.59,165.32v-34.75
				c0-3.73-3.03-6.77-6.76-6.77h-28.8h-43.67c-3.73,0-6.77,3.04-6.77,6.77v34.75c0,3.73,3.04,6.77,6.77,6.77h43.67h28.8
				C452.56,172.09,455.59,169.05,455.59,165.32z M455.59,117.46v-13.61c0-3.73-3.03-6.76-6.76-6.76h-72.47
				c-3.73,0-6.77,3.03-6.77,6.76v13.61c2.03-1.05,4.33-1.66,6.77-1.66h72.47C451.27,115.8,453.57,116.41,455.59,117.46z"/>
			<path style="fill:#FFFFFF;" d="M442.7,225.27v68c0,8.64-7.03,15.67-15.67,15.67h-13.32c-0.54-3.36-1.74-6.51-3.46-9.29h11.74
				c4.11,0,7.97-1.6,10.87-4.51c2.9-2.9,4.5-6.76,4.5-10.86c0-0.24,0-44.04,0-44.04c0-8.47-6.89-15.37-15.36-15.37h-10.62
				c0.22-8.45,7.14-15.26,15.65-15.26C435.67,209.61,442.7,216.63,442.7,225.27z"/>
			<path d="M433.84,140.51v14.87c0,2.2-1.79,4-4,4h-5.81v5.81c0,2.21-1.8,4-4,4h-14.87c-2.2,0-4-1.79-4-4v-5.81h-5.82
				c-2.2,0-4-1.8-4-4v-14.87c0-2.21,1.8-4,4-4h5.82v-5.82c0-2.2,1.8-4,4-4h14.87c2.2,0,4,1.8,4,4v5.82h5.81
				C432.05,136.51,433.84,138.3,433.84,140.51z M425.84,151.38v-6.87h-5.81c-2.21,0-4-1.79-4-4v-5.82h-6.87v5.82c0,2.21-1.79,4-4,4
				h-5.82v6.87h5.82c2.21,0,4,1.79,4,4v5.81h6.87v-5.81c0-2.21,1.79-4,4-4H425.84z"/>
			<path style="fill:#29ABE2;" d="M429.36,240.24v30.55c-2.19-1.2-4.7-1.88-7.37-1.88h-42.63v-36.04H422
				C426.06,232.87,429.36,236.18,429.36,240.24z"/>
			<path d="M425.09,102.09c2.21,0,4,1.79,4,4c0,2.2-1.79,4-4,4h-25c-2.2,0-4-1.8-4-4c0-2.21,1.8-4,4-4H425.09z"/>
			<path style="fill:#1B8CAA;" d="M429.36,284.28c0,1.96-0.77,3.82-2.16,5.21c-1.39,1.39-3.24,2.16-5.21,2.16h-19.6
				c-3.95-2.56-8.65-4.04-13.69-4.04c-5.05,0-9.75,1.48-13.7,4.04h-8.94c-4.06,0-7.37-3.31-7.37-7.37c0-1.97,0.77-3.82,2.16-5.22
				c1.39-1.39,3.24-2.15,5.21-2.15h55.93C426.05,276.91,429.36,280.21,429.36,284.28z"/>
			<path style="fill:#E8653D;" d="M425.84,144.51v6.87h-5.81c-2.21,0-4,1.79-4,4v5.81h-6.87v-5.81c0-2.21-1.79-4-4-4h-5.82v-6.87
				h5.82c2.21,0,4-1.79,4-4v-5.82h6.87v5.82c0,2.21,1.79,4,4,4H425.84z"/>
			<path style="fill:#E8653D;" d="M397.03,351.47c4.78,0,8.67,3.89,8.67,8.67c0,4.78-3.89,8.67-8.67,8.67h-16.67
				c-4.78,0-8.66-3.89-8.66-8.67c0-4.78,3.88-8.67,8.66-8.67H397.03z"/>
			<path style="fill:#CCCCCC;" d="M388.7,295.61c9.55,0,17.33,7.77,17.33,17.33s-7.78,17.33-17.33,17.33
				c-9.56,0-17.34-7.77-17.34-17.33S379.14,295.61,388.7,295.61z M391.85,315.39c1.36-1.74,1.04-4.25-0.7-5.61
				c-1.74-1.35-4.26-1.04-5.61,0.7l-7,9c-1.36,1.75-1.04,4.26,0.7,5.62c0.73,0.56,1.59,0.84,2.45,0.84c1.19,0,2.37-0.53,3.16-1.55
				L391.85,315.39z"/>
			<path d="M391.15,309.78c1.74,1.36,2.06,3.87,0.7,5.61l-7,9c-0.79,1.02-1.97,1.55-3.16,1.55c-0.86,0-1.72-0.28-2.45-0.84
				c-1.74-1.36-2.06-3.87-0.7-5.62l7-9C386.89,308.74,389.41,308.43,391.15,309.78z"/>
			<path style="fill:#29ABE2;" d="M371.36,232.87v36.04h-5.3c-2.62,0-5.13,0.65-7.36,1.87v-30.54c0-4.06,3.3-7.37,7.36-7.37H371.36z
				"/>
			<path d="M335.89,159.14c4.08,1.72,5.99,6.45,4.27,10.54l-24.98,58.83c-1.31,3.06-4.29,4.89-7.42,4.89
				c-1.05,0.01-2.11-0.2-3.13-0.63l-25.45-10.81c-1.04-0.44-1.95-1.08-2.7-1.88l-5.66,5.66c-1.73,1.74-4.05,2.7-6.51,2.7
				c-2.45,0-4.76-0.96-6.5-2.7l-17.91-17.91c-1.74-1.74-2.7-4.05-2.7-6.51c0-2.46,0.96-4.77,2.7-6.51l43.54-43.54
				c1.74-1.74,4.05-2.7,6.51-2.7c2.46,0,4.77,0.96,6.51,2.7l2.81,2.8l0.63-1.48c0.83-1.97,2.39-3.51,4.39-4.31
				c2-0.81,4.18-0.79,6.16,0.06L335.89,159.14z M325.35,184.04l7.44-17.48l-25.47-10.86l-1.94,4.49l1.87,1.87
				c1.05-2.18,3.62-3.18,5.87-2.23c2.32,0.99,3.4,3.66,2.42,5.98c-0.45,1.06-1.27,1.85-2.23,2.31l1.06,1.06
				c1.74,1.73,2.69,4.05,2.69,6.51c0,0.52-0.05,1.03-0.13,1.54c1.14-0.56,2.5-0.65,3.77-0.11c2.31,0.98,3.39,3.66,2.41,5.97
				c-0.98,2.32-3.66,3.4-5.98,2.42c-1.46-0.63-2.43-1.93-2.7-3.39c-0.02,0.03-0.04,0.05-0.06,0.07l-14.71,14.71
				c1.05,1.27,1.38,3.05,0.69,4.67c-0.98,2.31-3.65,3.39-5.97,2.41c-0.41-0.18-0.78-0.41-1.11-0.69l-4.52,4.52
				c1.21-0.73,2.73-0.9,4.13-0.3c2.32,0.98,3.4,3.66,2.42,5.97c-0.99,2.32-3.66,3.4-5.98,2.42c-2.32-0.98-3.4-3.66-2.42-5.98
				c0.09-0.21,0.21-0.39,0.33-0.58l-4.75,4.74l-0.19,0.46l25.47,10.86L325.35,184.04z M309.06,175.69c0-0.23-0.06-0.56-0.35-0.86
				l-17.91-17.91c-0.29-0.29-0.62-0.35-0.85-0.35c-0.23,0-0.56,0.06-0.85,0.35l-43.55,43.55c-0.29,0.29-0.35,0.62-0.35,0.85
				c0,0.23,0.06,0.56,0.35,0.85l17.91,17.91c0.29,0.29,0.63,0.36,0.85,0.36c0.23,0,0.57-0.07,0.86-0.36l43.54-43.54
				C309,176.25,309.06,175.91,309.06,175.69z"/>
			<path d="M333.18,279.96v88c0,2.21-1.8,4-4,4c-2.21,0-4-1.79-4-4v-88c0-2.21,1.79-4,4-4
				C331.38,275.96,333.18,277.75,333.18,279.96z"/>
			<path style="fill:#E8653D;" d="M332.79,166.56l-7.44,17.48l-2.24-0.95c0.98-2.31-0.1-4.99-2.41-5.97
				c-1.27-0.54-2.63-0.45-3.77,0.11c0.08-0.51,0.13-1.02,0.13-1.54c0-2.46-0.95-4.78-2.69-6.51l-1.06-1.06
				c0.96-0.46,1.78-1.25,2.23-2.31c0.98-2.32-0.1-4.99-2.42-5.98c-2.25-0.95-4.82,0.05-5.87,2.23l-1.87-1.87l1.94-4.49
				L332.79,166.56z M328.17,171.17c0.98-2.31-0.1-4.99-2.41-5.97c-2.32-0.99-5,0.09-5.98,2.41c-0.98,2.32,0.1,5,2.41,5.98
				C324.51,174.57,327.19,173.49,328.17,171.17z"/>
			<path d="M325.76,165.2c2.31,0.98,3.39,3.66,2.41,5.97c-0.98,2.32-3.66,3.4-5.98,2.42c-2.31-0.98-3.39-3.66-2.41-5.98
				C320.76,165.29,323.44,164.21,325.76,165.2z"/>
			<path style="fill:#E8653D;" d="M325.35,184.04l-17.59,41.36l-25.47-10.86l0.19-0.46l4.75-4.74c-0.12,0.19-0.24,0.37-0.33,0.58
				c-0.98,2.32,0.1,5,2.42,5.98c2.32,0.98,4.99-0.1,5.98-2.42c0.98-2.31-0.1-4.99-2.42-5.97c-1.4-0.6-2.92-0.43-4.13,0.3l4.52-4.52
				c0.33,0.28,0.7,0.51,1.11,0.69c2.32,0.98,4.99-0.1,5.97-2.41c0.69-1.62,0.36-3.4-0.69-4.67l14.71-14.71
				c0.02-0.02,0.04-0.04,0.06-0.07c0.27,1.46,1.24,2.76,2.7,3.39c2.32,0.98,5-0.1,5.98-2.42L325.35,184.04z M318.05,195.01
				c0.98-2.32-0.1-4.99-2.41-5.98c-2.32-0.98-5,0.1-5.98,2.42c-0.99,2.32,0.1,4.99,2.41,5.98
				C314.39,198.41,317.07,197.33,318.05,195.01z M312.99,206.93c0.98-2.32-0.1-4.99-2.41-5.98c-2.32-0.98-5,0.1-5.98,2.42
				c-0.99,2.31,0.1,4.99,2.41,5.97C309.33,210.33,312.01,209.25,312.99,206.93z M307.93,218.85c0.98-2.32-0.1-4.99-2.41-5.98
				c-2.32-0.98-5,0.1-5.98,2.42c-0.99,2.31,0.1,4.99,2.41,5.97C304.27,222.25,306.95,221.17,307.93,218.85z"/>
			<path style="fill:#F2F2F2;" d="M323.81,78.96l-1.16,10.64c-4.79-2.84-11.87-4.3-18.91-4.3c-7.03,0-14.11,1.46-18.9,4.3
				l-1.16-10.64c4.84,2.29,11.55,3.77,20.06,3.77C312.25,82.73,318.96,81.25,323.81,78.96z"/>
			<path style="fill:#1B8CAA;" d="M320.63,108.17l-2.22,20.41c-0.01,0.14-0.01,0.19-0.01,0.33c-0.39,1.16-5.49,4.2-14.66,4.2
				c-9.17,0-14.27-3.04-14.64-4.1c0-0.15-0.01-0.29-0.03-0.43l-2.21-20.41c4.64,2.14,10.78,3.24,16.88,3.24
				C309.85,111.41,315.98,110.31,320.63,108.17z"/>
			<path style="fill:#F2F2F2;" d="M303.74,60.75c14.06,0,21.31,4.9,21.31,6.99c0,2.09-7.25,6.99-21.31,6.99
				c-14.05,0-21.3-4.9-21.3-6.99C282.44,65.65,289.69,60.75,303.74,60.75z"/>
			<path d="M315.64,189.03c2.31,0.99,3.39,3.66,2.41,5.98c-0.98,2.32-3.66,3.4-5.98,2.42c-2.31-0.99-3.4-3.66-2.41-5.98
				C310.64,189.13,313.32,188.05,315.64,189.03z"/>
			<path style="fill:#29ABE2;" d="M303.74,93.3c10.87,0,16.85,3.8,16.85,5.06c0,1.25-5.98,5.05-16.85,5.05s-16.84-3.8-16.84-5.05
				C286.9,97.1,292.87,93.3,303.74,93.3z"/>
			<path d="M310.58,200.95c2.31,0.99,3.39,3.66,2.41,5.98c-0.98,2.32-3.66,3.4-5.98,2.41c-2.31-0.98-3.4-3.66-2.41-5.97
				C305.58,201.05,308.26,199.97,310.58,200.95z"/>
			<path d="M312.31,257.09v122c0,2.2-1.79,4-4,4H144.19c-2.21,0-4-1.8-4-4v-122c0-2.21,1.79-4,4-4h164.12
				C310.52,253.09,312.31,254.88,312.31,257.09z M304.31,375.09v-3h-74.06v3H304.31z M304.31,364.09v-103h-74.06v103H304.31z
				 M222.25,375.09v-3h-74.06v3H222.25z M222.25,364.09v-103h-74.06v103H222.25z"/>
			<path style="fill:#29ABE2;" d="M308.71,174.83c0.29,0.3,0.35,0.63,0.35,0.86c0,0.22-0.06,0.56-0.35,0.85l-43.54,43.54
				c-0.29,0.29-0.63,0.36-0.86,0.36c-0.22,0-0.56-0.07-0.85-0.36l-17.91-17.91c-0.29-0.29-0.35-0.62-0.35-0.85
				c0-0.23,0.06-0.56,0.35-0.85l43.55-43.55c0.29-0.29,0.62-0.35,0.85-0.35c0.23,0,0.56,0.06,0.85,0.35L308.71,174.83z
				 M303.52,178.27c1.78-1.78,1.78-4.67,0-6.45c-1.78-1.78-4.67-1.78-6.45,0c-1.78,1.78-1.78,4.67,0,6.45
				S301.74,180.05,303.52,178.27z M294.36,187.42c1.78-1.78,1.78-4.66,0-6.44c-1.78-1.78-4.66-1.78-6.44,0s-1.78,4.66,0,6.44
				S292.58,189.2,294.36,187.42z M293.82,168.56c1.78-1.78,1.78-4.66,0-6.44c-1.79-1.78-4.67-1.78-6.45,0s-1.78,4.66,0,6.44
				S292.03,170.34,293.82,168.56z M285.21,196.58c1.78-1.78,1.78-4.67,0-6.45s-4.67-1.78-6.45,0s-1.78,4.67,0,6.45
				S283.43,198.36,285.21,196.58z M284.66,177.72c1.78-1.78,1.78-4.67,0-6.45s-4.67-1.78-6.45,0s-1.78,4.67,0,6.45
				S282.88,179.5,284.66,177.72z M276.05,205.73c1.78-1.78,1.78-4.66,0-6.44c-1.78-1.78-4.66-1.78-6.44,0
				c-1.78,1.78-1.78,4.66,0,6.44C271.39,207.51,274.27,207.51,276.05,205.73z M275.5,186.87c1.78-1.78,1.78-4.66,0-6.44
				c-1.78-1.78-4.66-1.78-6.44,0c-1.78,1.78-1.78,4.66,0,6.44S273.72,188.65,275.5,186.87z M266.9,214.89
				c1.78-1.78,1.78-4.67,0-6.45s-4.67-1.78-6.45,0s-1.78,4.67,0,6.45S265.12,216.67,266.9,214.89z M266.35,196.03
				c1.78-1.78,1.78-4.67,0-6.45s-4.67-1.78-6.45,0s-1.78,4.67,0,6.45S264.57,197.81,266.35,196.03z M257.19,205.19
				c1.78-1.78,1.78-4.67,0-6.45s-4.66-1.78-6.44,0s-1.78,4.67,0,6.45S255.41,206.97,257.19,205.19z"/>
			<path d="M305.52,212.87c2.31,0.99,3.39,3.66,2.41,5.98c-0.98,2.32-3.66,3.4-5.98,2.41c-2.31-0.98-3.4-3.66-2.41-5.97
				C300.52,212.97,303.2,211.89,305.52,212.87z"/>
			<rect x="230.25" y="372.09" style="fill:#E6E6E6;" width="74.06" height="3"/>
			<path style="fill:#F2F2F2;" d="M304.31,261.09v103h-74.06v-103H304.31z M297.19,292.75c0-2.21-1.79-4-4-4h-51.8
				c-2.21,0-4,1.79-4,4s1.79,4,4,4h51.8C295.4,296.75,297.19,294.96,297.19,292.75z M290.19,308.42c0-2.21-1.79-4-4-4h-44.8
				c-2.21,0-4,1.79-4,4c0,2.21,1.79,4,4,4h44.8C288.4,312.42,290.19,310.63,290.19,308.42z M272.39,277.09c0-2.21-1.79-4-4-4h-27
				c-2.21,0-4,1.79-4,4c0,2.2,1.79,4,4,4h27C270.6,281.09,272.39,279.29,272.39,277.09z"/>
			<circle cx="300.295" cy="175.045" r="4.561"/>
			<path d="M293.19,288.75c2.21,0,4,1.79,4,4s-1.79,4-4,4h-51.8c-2.21,0-4-1.79-4-4s1.79-4,4-4H293.19z"/>
			<circle cx="291.14" cy="184.2" r="4.554"/>
			<path d="M293.82,162.12c1.78,1.78,1.78,4.66,0,6.44c-1.79,1.78-4.67,1.78-6.45,0s-1.78-4.66,0-6.44S292.03,160.34,293.82,162.12z
				"/>
			<path d="M286.19,304.42c2.21,0,4,1.79,4,4c0,2.21-1.79,4-4,4h-44.8c-2.21,0-4-1.79-4-4c0-2.21,1.79-4,4-4H286.19z"/>
			<circle cx="281.985" cy="193.355" r="4.561"/>
			<circle cx="281.435" cy="174.495" r="4.561"/>
			<circle cx="272.83" cy="202.51" r="4.554"/>
			<circle cx="272.28" cy="183.65" r="4.554"/>
			<path d="M268.39,273.09c2.21,0,4,1.79,4,4c0,2.2-1.79,4-4,4h-27c-2.21,0-4-1.8-4-4c0-2.21,1.79-4,4-4H268.39z"/>
			<circle cx="263.675" cy="211.665" r="4.561"/>
			<circle cx="263.125" cy="192.805" r="4.561"/>
			<path d="M257.19,198.74c1.78,1.78,1.78,4.67,0,6.45s-4.66,1.78-6.44,0s-1.78-4.67,0-6.45S255.41,196.96,257.19,198.74z"/>
			<path d="M249.87,136.78c4.8,0,8.7,3.9,8.7,8.7s-3.9,8.7-8.7,8.7h-33.46c-3.45,0-6.85,0.91-9.85,2.62
				c-4.2,2.41-8.98,3.68-13.82,3.68h-62.67c-8.27,0-15-6.73-15-15c0-8.27,6.73-15,15-15h62.67c4.84,0,9.62,1.27,13.82,3.68
				c3,1.71,6.4,2.62,9.85,2.62H249.87z M250.57,145.48c0-0.39-0.31-0.7-0.7-0.7h-11.8v1.4h11.8
				C250.26,146.18,250.57,145.86,250.57,145.48z M230.07,146.18v-1.4h-13.66c-4.84,0-9.62-1.28-13.82-3.68
				c-3-1.72-6.4-2.62-9.85-2.62h-24.17h-38.5c-3.86,0-7,3.14-7,7s3.14,7,7,7h38.5h24.17c3.45,0,6.85-0.91,9.85-2.62
				c4.2-2.41,8.98-3.68,13.82-3.68H230.07z"/>
			<path style="fill:#808080;" d="M249.87,144.78c0.39,0,0.7,0.31,0.7,0.7c0,0.38-0.31,0.7-0.7,0.7h-11.8v-1.4H249.87z"/>
			<path d="M234.08,95.59v22c0,2.2-1.8,4-4,4c-2.21,0-4-1.8-4-4v-7h-27.5v7c0,2.2-1.8,4-4,4h-71.5c-2.21,0-4-1.8-4-4v-7H75.79
				c-2.21,0-4-1.8-4-4c0-2.21,1.79-4,4-4h43.29v-7c0-2.21,1.79-4,4-4h71.5c2.2,0,4,1.79,4,4v7h27.5v-7c0-2.21,1.79-4,4-4
				C232.28,91.59,234.08,93.38,234.08,95.59z M190.58,113.59v-3h-39.5v3H190.58z M190.58,102.59v-3h-39.5v3H190.58z M143.08,113.59
				v-14h-16v14H143.08z"/>
			<path style="fill:#E8653D;" d="M230.07,144.78v1.4h-13.66c-4.84,0-9.62,1.27-13.82,3.68c-3,1.71-6.4,2.62-9.85,2.62h-24.17v-3
				c2.21,0,4-1.79,4-4c0-2.21-1.79-4-4-4v-3h24.17c3.45,0,6.85,0.9,9.85,2.62c4.2,2.4,8.98,3.68,13.82,3.68H230.07z"/>
			<path d="M213.57,168.09c6.9,0,12.5,5.6,12.5,12.5c0,6.89-5.6,12.5-12.5,12.5h-86c-6.89,0-12.5-5.61-12.5-12.5
				c0-6.9,5.61-12.5,12.5-12.5H213.57z M218.07,180.59c0-2.49-2.01-4.5-4.5-4.5h-39v9h39C216.06,185.09,218.07,183.07,218.07,180.59
				z M166.57,185.09v-9h-39c-2.48,0-4.5,2.01-4.5,4.5c0,2.48,2.02,4.5,4.5,4.5H166.57z"/>
			<rect x="148.19" y="372.09" style="fill:#E6E6E6;" width="74.06" height="3"/>
			<path style="fill:#F2F2F2;" d="M222.25,261.09v103h-74.06v-103H222.25z M216.39,277.09c0-2.21-1.79-4-4-4h-54c-2.21,0-4,1.79-4,4
				c0,2.2,1.79,4,4,4h54C214.6,281.09,216.39,279.29,216.39,277.09z M207.19,308.42c0-2.21-1.79-4-4-4h-44.8c-2.21,0-4,1.79-4,4
				c0,2.21,1.79,4,4,4h44.8C205.4,312.42,207.19,310.63,207.19,308.42z M198.19,292.75c0-2.21-1.79-4-4-4h-35.8c-2.21,0-4,1.79-4,4
				s1.79,4,4,4h35.8C196.4,296.75,198.19,294.96,198.19,292.75z M193.19,324.09c0-2.21-1.79-4-4-4h-30.8c-2.21,0-4,1.79-4,4
				c0,2.2,1.79,4,4,4h30.8C191.4,328.09,193.19,326.29,193.19,324.09z"/>
			<path d="M210.94,218.09c6.62,0,12,5.38,12,12c0,6.61-5.38,12-12,12h-13c-6.61,0-12-5.39-12-12c0-6.62,5.39-12,12-12H210.94z
				 M214.94,230.09c0-2.21-1.79-4-4-4h-2.5v8h2.5C213.15,234.09,214.94,232.29,214.94,230.09z M200.44,234.09v-8h-2.5
				c-2.2,0-4,1.79-4,4c0,2.2,1.8,4,4,4H200.44z"/>
			<path style="fill:#808080;" d="M213.57,176.09c2.49,0,4.5,2.01,4.5,4.5c0,2.48-2.01,4.5-4.5,4.5h-39v-9H213.57z"/>
			<path d="M212.39,273.09c2.21,0,4,1.79,4,4c0,2.2-1.79,4-4,4h-54c-2.21,0-4-1.8-4-4c0-2.21,1.79-4,4-4H212.39z"/>
			<path style="fill:#E8653D;" d="M210.94,226.09c2.21,0,4,1.79,4,4c0,2.2-1.79,4-4,4h-2.5v-8H210.94z"/>
			<path d="M203.19,304.42c2.21,0,4,1.79,4,4c0,2.21-1.79,4-4,4h-44.8c-2.21,0-4-1.79-4-4c0-2.21,1.79-4,4-4H203.19z"/>
			<path style="fill:#29ABE2;" d="M200.44,226.09v8h-2.5c-2.2,0-4-1.8-4-4c0-2.21,1.8-4,4-4H200.44z"/>
			<path d="M194.19,288.75c2.21,0,4,1.79,4,4s-1.79,4-4,4h-35.8c-2.21,0-4-1.79-4-4s1.79-4,4-4H194.19z"/>
			<path d="M189.19,320.09c2.21,0,4,1.79,4,4c0,2.2-1.79,4-4,4h-30.8c-2.21,0-4-1.8-4-4c0-2.21,1.79-4,4-4H189.19z"/>
			<rect x="151.08" y="110.59" style="fill:#F2F2F2;" width="39.5" height="3"/>
			<rect x="151.08" y="99.59" style="fill:#F2F2F2;" width="39.5" height="3"/>
			<path d="M175.44,200.59c6.62,0,12,5.38,12,12c0,6.61-5.38,12-12,12h-13c-6.61,0-12-5.39-12-12c0-6.62,5.39-12,12-12H175.44z
				 M179.44,212.59c0-2.21-1.79-4-4-4h-2.5v8h2.5C177.65,216.59,179.44,214.79,179.44,212.59z M164.94,216.59v-8h-2.5
				c-2.2,0-4,1.79-4,4c0,2.2,1.8,4,4,4H164.94z"/>
			<path style="fill:#E8653D;" d="M175.44,208.59c2.21,0,4,1.79,4,4c0,2.2-1.79,4-4,4h-2.5v-8H175.44z"/>
			<path d="M168.57,141.48c2.21,0,4,1.79,4,4c0,2.21-1.79,4-4,4h-22c-2.2,0-4-1.79-4-4c0-2.21,1.8-4,4-4H168.57z"/>
			<path style="fill:#E8653D;" d="M168.57,149.48v3h-38.5c-3.86,0-7-3.14-7-7s3.14-7,7-7h38.5v3h-22c-2.2,0-4,1.79-4,4
				c0,2.21,1.8,4,4,4H168.57z"/>
			<path style="fill:#29ABE2;" d="M166.57,176.09v9h-39c-2.48,0-4.5-2.02-4.5-4.5c0-2.49,2.02-4.5,4.5-4.5H166.57z"/>
			<path style="fill:#29ABE2;" d="M164.94,208.59v8h-2.5c-2.2,0-4-1.8-4-4c0-2.21,1.8-4,4-4H164.94z"/>
			<rect x="127.08" y="99.59" style="fill:#1B8CAA;" width="16" height="14"/>
			<path d="M138.01,238.8c0,10.37-7.46,19.02-17.29,20.9v28.27c0,17.03-13.86,30.9-30.9,30.9c-17.03,0-30.9-13.87-30.9-30.9v-53.08
				c-8.8-0.66-17.01-4.33-23.43-10.58c-7.37-7.17-11.43-16.79-11.43-27.07v-43.53c0-12.97,10.55-23.51,23.51-23.51
				c2.21,0,4,1.79,4,4c0,2.21-1.79,4-4,4c-8.55,0-15.51,6.95-15.51,15.51v43.53c0,8.11,3.2,15.69,9.01,21.34
				c5.81,5.65,13.49,8.65,21.6,8.42c15.96-0.44,28.94-14.1,28.94-30.46v-42.83c0-8.56-6.96-15.51-15.51-15.51
				c-2.21,0-4.01-1.79-4.01-4c0-2.21,1.79-4,4-4h0.01c12.96,0,23.51,10.54,23.51,23.51v42.83c0,19.26-14.33,35.56-32.69,38.12v53.31
				c0,12.62,10.28,22.9,22.9,22.9c12.63,0,22.9-10.28,22.9-22.9V259.7c-9.83-1.88-17.29-10.53-17.29-20.9
				c0-11.74,9.55-21.29,21.29-21.29S138.01,227.06,138.01,238.8z M130.01,238.8c0-7.33-5.96-13.29-13.29-13.29
				c-7.32,0-13.29,5.96-13.29,13.29c0,7.32,5.97,13.28,13.29,13.28C124.05,252.08,130.01,246.12,130.01,238.8z"/>
			<path style="fill:#29ABE2;" d="M116.72,225.51c7.33,0,13.29,5.96,13.29,13.29c0,7.32-5.96,13.28-13.29,13.28
				c-7.32,0-13.29-5.96-13.29-13.28C103.43,231.47,109.4,225.51,116.72,225.51z M122.59,238.8c0-3.24-2.63-5.87-5.87-5.87
				s-5.86,2.63-5.86,5.87c0,3.24,2.62,5.86,5.86,5.86S122.59,242.04,122.59,238.8z"/>
			<path d="M116.72,232.93c3.24,0,5.87,2.63,5.87,5.87c0,3.24-2.63,5.86-5.87,5.86s-5.86-2.62-5.86-5.86
				C110.86,235.56,113.48,232.93,116.72,232.93z"/>
			<path d="M97.09,342.45v33.77c0,2.21-1.79,4-4,4h-62.4c-2.21,0-4-1.79-4-4v-33.77c0-2.21,1.79-4,4-4h26.34v-12.03
				c0-2.21,1.79-4,4-4c2.21,0,4,1.79,4,4v12.03h28.06C95.3,338.45,97.09,340.24,97.09,342.45z M89.09,372.22v-25.77h-54.4v25.77
				h5.52c-0.03-0.27-0.05-0.56-0.05-0.84c0-2.57,1.26-4.84,3.19-6.24c-1.93-1.4-3.19-3.67-3.19-6.24c0-4.26,3.45-7.71,7.71-7.71
				c4.25,0,7.71,3.45,7.71,7.71c0,2.57-1.27,4.84-3.2,6.24c1.93,1.4,3.2,3.67,3.2,6.24c0,0.28-0.02,0.57-0.05,0.84H89.09z"/>
			<path style="fill:#E8653D;" d="M89.09,346.45v25.77H55.53c0.03-0.27,0.05-0.56,0.05-0.84c0-2.57-1.27-4.84-3.2-6.24
				c1.93-1.4,3.2-3.67,3.2-6.24c0-4.26-3.46-7.71-7.71-7.71c-4.26,0-7.71,3.45-7.71,7.71c0,2.57,1.26,4.84,3.19,6.24
				c-1.93,1.4-3.19,3.67-3.19,6.24c0,0.28,0.02,0.57,0.05,0.84h-5.52v-25.77H89.09z M83.93,360.77c0-2.21-1.8-4-4-4H65.61
				c-2.21,0-4,1.79-4,4c0,2.21,1.79,4,4,4h14.32C82.13,364.77,83.93,362.98,83.93,360.77z"/>
			<path d="M79.93,356.77c2.2,0,4,1.79,4,4c0,2.21-1.8,4-4,4H65.61c-2.21,0-4-1.79-4-4c0-2.21,1.79-4,4-4H79.93z"/>
		</g>
		<g>
		</g>
	</g>
</g>
<g>
</g>
<g>
</g>
<g>
</g>
<g>
</g>
<g>
</g>
<g>
</g>
<g>
</g>
<g>
</g>
<g>
</g>
<g>
</g>
<g>
</g>
<g>
</g>
<g>
</g>
<g>
</g>
<g>
</g>
</svg>
